<svg width="198" height="48" viewBox="0 0 198 48" fill="none" xmlns="http://www.w3.org/2000/svg">
<path d="M0.773438 9.94318V3.09091H30.2791V9.94318H19.6939V38H11.3757V9.94318H0.773438ZM31.6811 38V11.8182H39.7777V16.5909H40.0504C40.5277 14.8636 41.3061 13.5795 42.3857 12.7386C43.4652 11.8864 44.7209 11.4602 46.1527 11.4602C46.5391 11.4602 46.9368 11.4886 47.3459 11.5455C47.755 11.5909 48.1357 11.6648 48.4879 11.767V19.0114C48.0902 18.875 47.5675 18.767 46.9197 18.6875C46.2834 18.608 45.7152 18.5682 45.2152 18.5682C44.2266 18.5682 43.3345 18.7898 42.5391 19.233C41.755 19.6648 41.1357 20.2727 40.6811 21.0568C40.2379 21.8295 40.0163 22.7386 40.0163 23.7841V38H31.6811ZM51.8842 38V11.8182H60.2195V38H51.8842ZM56.0604 8.76705C54.8899 8.76705 53.8842 8.38068 53.0433 7.60795C52.2024 6.82386 51.782 5.88068 51.782 4.77841C51.782 3.6875 52.2024 2.75568 53.0433 1.98295C53.8842 1.19886 54.8899 0.806816 56.0604 0.806816C57.2422 0.806816 58.2479 1.19886 59.0774 1.98295C59.9183 2.75568 60.3388 3.6875 60.3388 4.77841C60.3388 5.88068 59.9183 6.82386 59.0774 7.60795C58.2479 8.38068 57.2422 8.76705 56.0604 8.76705Z" fill="white"/>
<path d="M97.2124 15.7386H88.6896C88.576 14.8636 88.343 14.0739 87.9908 13.3693C87.6385 12.6648 87.1726 12.0625 86.593 11.5625C86.0135 11.0625 85.326 10.6818 84.5305 10.4205C83.7464 10.1477 82.8771 10.0114 81.9226 10.0114C80.2294 10.0114 78.7692 10.4261 77.5419 11.2557C76.326 12.0852 75.3885 13.2841 74.7294 14.8523C74.0817 16.4205 73.7578 18.3182 73.7578 20.5455C73.7578 22.8636 74.0874 24.8068 74.7464 26.375C75.4169 27.9318 76.3544 29.108 77.5589 29.9034C78.7749 30.6875 80.2124 31.0795 81.8714 31.0795C82.8033 31.0795 83.6499 30.9602 84.4112 30.7216C85.1839 30.483 85.8601 30.1364 86.4396 29.6818C87.0305 29.2159 87.5135 28.6534 87.8885 27.9943C88.2749 27.3239 88.5419 26.5682 88.6896 25.7273L97.2124 25.7784C97.0646 27.3239 96.6158 28.8466 95.8658 30.3466C95.1271 31.8466 94.1101 33.2159 92.8146 34.4545C91.5192 35.6818 89.9396 36.6591 88.076 37.3864C86.2237 38.1136 84.0987 38.4773 81.701 38.4773C78.5419 38.4773 75.7124 37.7841 73.2124 36.3977C70.7237 35 68.7578 32.9659 67.3146 30.2955C65.8714 27.625 65.1499 24.375 65.1499 20.5455C65.1499 16.7045 65.8828 13.4489 67.3487 10.7784C68.8146 8.10795 70.7976 6.07955 73.2976 4.69318C75.7976 3.30682 78.5987 2.61364 81.701 2.61364C83.8146 2.61364 85.7692 2.90909 87.5646 3.5C89.3601 4.07954 90.9396 4.93182 92.3033 6.05682C93.6669 7.17045 94.7749 8.53977 95.6271 10.1648C96.4794 11.7898 97.0078 13.6477 97.2124 15.7386ZM102.04 38V11.8182H110.137V16.5909H110.41C110.887 14.8636 111.665 13.5795 112.745 12.7386C113.825 11.8864 115.08 11.4602 116.512 11.4602C116.898 11.4602 117.296 11.4886 117.705 11.5455C118.114 11.5909 118.495 11.6648 118.847 11.767V19.0114C118.45 18.875 117.927 18.767 117.279 18.6875C116.643 18.608 116.075 18.5682 115.575 18.5682C114.586 18.5682 113.694 18.7898 112.898 19.233C112.114 19.6648 111.495 20.2727 111.04 21.0568C110.597 21.8295 110.376 22.7386 110.376 23.7841V38H102.04ZM128.137 47.8182C127.137 47.8182 126.194 47.7386 125.308 47.5795C124.421 47.4318 123.66 47.233 123.023 46.983L124.864 40.9318C125.683 41.2045 126.421 41.3636 127.08 41.4091C127.751 41.4545 128.325 41.3466 128.802 41.0852C129.29 40.8352 129.665 40.3864 129.927 39.7386L130.251 38.9545L120.944 11.8182H129.671L134.495 30.5H134.768L139.66 11.8182H148.438L138.569 40.5057C138.092 41.9375 137.415 43.1989 136.54 44.2898C135.677 45.392 134.558 46.2557 133.183 46.8807C131.819 47.5057 130.137 47.8182 128.137 47.8182ZM151.634 47.8182V11.8182H159.884V16.3011H160.14C160.481 15.5057 160.964 14.7386 161.589 14C162.225 13.2614 163.032 12.6591 164.009 12.1932C164.998 11.7159 166.18 11.4773 167.555 11.4773C169.373 11.4773 171.072 11.9545 172.651 12.9091C174.242 13.8636 175.526 15.3352 176.504 17.3239C177.481 19.3125 177.969 21.8466 177.969 24.9261C177.969 27.892 177.498 30.375 176.555 32.375C175.623 34.375 174.362 35.875 172.771 36.875C171.191 37.875 169.435 38.375 167.504 38.375C166.185 38.375 165.043 38.1591 164.077 37.7273C163.112 37.2955 162.299 36.7273 161.64 36.0227C160.992 35.3182 160.492 34.5625 160.14 33.7557H159.969V47.8182H151.634ZM159.799 24.9091C159.799 26.3182 159.987 27.5455 160.362 28.5909C160.748 29.6364 161.299 30.4489 162.015 31.0284C162.742 31.5966 163.612 31.8807 164.623 31.8807C165.646 31.8807 166.515 31.5966 167.231 31.0284C167.947 30.4489 168.487 29.6364 168.85 28.5909C169.225 27.5455 169.413 26.3182 169.413 24.9091C169.413 23.5 169.225 22.2784 168.85 21.2443C168.487 20.2102 167.947 19.4091 167.231 18.8409C166.526 18.2727 165.657 17.9886 164.623 17.9886C163.6 17.9886 162.731 18.267 162.015 18.8239C161.299 19.3807 160.748 20.1761 160.362 21.2102C159.987 22.2443 159.799 23.4773 159.799 24.9091ZM197.116 11.8182V17.9545H180.599V11.8182H197.116ZM184.059 5.54545H192.394V29.767C192.394 30.2784 192.474 30.6932 192.633 31.0114C192.803 31.3182 193.048 31.5398 193.366 31.6761C193.684 31.8011 194.065 31.8636 194.508 31.8636C194.826 31.8636 195.161 31.8352 195.513 31.7784C195.877 31.7102 196.15 31.6534 196.332 31.608L197.593 37.625C197.195 37.7386 196.633 37.8807 195.906 38.0511C195.19 38.2216 194.332 38.3295 193.332 38.375C191.377 38.4659 189.701 38.2386 188.303 37.6932C186.917 37.1364 185.854 36.2727 185.116 35.1023C184.388 33.9318 184.036 32.4602 184.059 30.6875V5.54545Z" fill="#FF0000"/>
</svg>
